<svg xmlns="http://www.w3.org/2000/svg" viewBox="0 0 180 58.408"><path d="M0 .015h22.832s3.731-.379 4.143 2.654 2.782 32.9 2.782 32.9l10.426-21.491s1.593-4.029 5.654-4.123l6.264.1L32.6 52.371s-2.731 6.577-7.861 6a6.011 6.011 0 01-5.106-5.628c-.368-4.237-3.757-41.436-3.757-41.436a1.523 1.523 0 00-1.642-1.4C12.71 9.972 9.2 9.9 7.923 9.9 5 9.9 3.931 6.892 2.152 3.858A40.969 40.969 0 010 .015zm66.77 9.94h-8.854a2.5 2.5 0 00-2.416 1.518L42.784 40.415h8.251a3.419 3.419 0 003.1-1.7c.649-1.407 12.635-28.76 12.635-28.76zm3.542-7.909h-8.853a2.494 2.494 0 00-2.414 1.518l-1.8 3.973h8.253a3.422 3.422 0 003.095-1.7 584.374 584.374 0 001.719-3.791zm47.507 7.909h-8.854a2.493 2.493 0 00-2.413 1.518l-12.72 28.942h8.253a3.422 3.422 0 003.1-1.7c.647-1.407 12.634-28.76 12.634-28.76zm3.542-7.909h-8.855a2.491 2.491 0 00-2.406 1.518l-1.8 3.973h8.252a3.422 3.422 0 003.1-1.7c.638-1.407 1.709-3.791 1.709-3.791zM75.818 9.955c-4.749 0-5.986 3.326-5.986 3.326s-3.264 7.757-4.078 9.587a3.343 3.343 0 003.235 4.744h13.347c1.673 0 1.861 1.308 1.572 1.982-.37 1.11-.71 1.745-2.671 1.745H63.93a2.943 2.943 0 00-3.23 2.079c-.575 1.437-3.165 7.046-3.165 7.046h25.259c3.422 0 6.208-.941 7.356-3.312 1.428-2.945 3.91-8.7 4.6-10.582a3.5 3.5 0 00-3.235-4.581H78.99a1.66 1.66 0 01-1.672-2.118c.227-1.322 1.265-1.373 2.3-1.373h16.617a3.5 3.5 0 003.1-1.7c.777-1.338 3.706-6.838 3.706-6.838zm95.267-.455a2.492 2.492 0 00-2.412 1.519s-4.826 11.217-5.242 11.94c-.688 1.2-1.746 1.254-2.345.03-2.57-7.183-4.633-13.359-4.633-13.359h-4.4a5.416 5.416 0 00-5.365 3.361c-.194.387-.908 1.966-1.9 4.185a15.251 15.251 0 01-5.4 22.74C148.96 36.894 150.766 27.94 151.507 26c.19-.56.631-.892.966.066.448 1.276-.342-1.014 4.926 14.411h6.475a3.477 3.477 0 003.095-1.7C167.777 37.451 179.9 9.5 179.9 9.5z" fill="#0068b7"/><path d="M145.822 26.283a15.252 15.252 0 11-15.251-15.252 15.251 15.251 0 0115.251 15.252zm-97.587 26.96h1.758l1.435-3.911h.017l.693 3.911h.7l2.5-3.911h.018l-.372 3.911h1.767l.479-6.8h-1.756l-2.265 3.637-.574-3.632H50.9zm11.354-2.308a.777.777 0 00.825 1.037 1.291 1.291 0 001.286-1.037.788.788 0 00-.823-1.045 1.316 1.316 0 00-1.288 1.045zm3.839 0A3.312 3.312 0 0160.1 53.4c-1.477 0-2.588-.883-2.238-2.461a3.312 3.312 0 013.332-2.468c1.484-.004 2.584.887 2.234 2.464zm3.117-2.315h-1.639l-1.026 4.623h1.641l.413-1.865c.176-.794.536-1.4 1.445-1.4a1.16 1.16 0 01.661.154l.349-1.578h-.315a2.063 2.063 0 00-1.678.82h-.018zm5.531 1.64a.705.705 0 00-.766-.73 1.207 1.207 0 00-1.135.73zm1.313.947h-3.451c-.149.666.123 1.026.8 1.026a1.045 1.045 0 00.878-.424h1.578a2.913 2.913 0 01-2.7 1.587c-1.531 0-2.484-.866-2.131-2.461a3.083 3.083 0 013.107-2.468c1.605 0 2.313.99 1.964 2.568zm6.026-2.587h-1.839l1.4 4.623h1.044l3.442-4.623h-1.839L80 50.99zm6.318 0h-1.641l-1.025 4.623h1.64zm-.223-2.695a1.218 1.218 0 00-1.123.919.717.717 0 00.715.92 1.218 1.218 0 001.123-.92.717.717 0 00-.715-.919zm5.1 2.839a3.227 3.227 0 00-1.457-.3 2.319 2.319 0 00-2.4 1.64.9.9 0 00.758 1.216c.483.136.993.153.913.514-.056.252-.384.351-.592.351a2.135 2.135 0 01-1.194-.468l-.849 1.144a3.01 3.01 0 001.749.532 2.452 2.452 0 002.562-1.718c.19-.857-.307-1.217-1.039-1.37-.216-.045-.719-.091-.65-.406.053-.234.4-.315.584-.315a1.732 1.732 0 01.834.225zm2.916-.144h-1.64l-1.025 4.623H92.5zm-.223-2.695a1.219 1.219 0 00-1.123.919.718.718 0 00.715.92 1.217 1.217 0 001.123-.92.717.717 0 00-.713-.919zm2.4 5.011a.777.777 0 00.825 1.036 1.293 1.293 0 001.284-1.036A.789.789 0 0097 49.89a1.318 1.318 0 00-1.291 1.046zm3.839 0a3.312 3.312 0 01-3.331 2.46c-1.477 0-2.588-.883-2.238-2.46a3.312 3.312 0 013.332-2.469c1.495 0 2.595.892 2.243 2.469zm3.118-2.316h-1.641L100 53.243h1.641l.532-2.4c.127-.577.427-1.073 1.093-1.073.811 0 .568.776.47 1.217l-.5 2.253h1.641l.634-2.857c.252-1.135-.07-1.919-1.314-1.919a2.02 2.02 0 00-1.644.748h-.018zm4.727 2.9l-1.834 2.992h1.054l2.322-2.992zm5.743 1.722h1.758l1.433-3.911h.019l.692 3.911h.7l2.5-3.911h.018l-.371 3.911h1.766l.48-6.8h-1.757l-2.266 3.632-.573-3.632H115.8zm11.353-2.307a.777.777 0 00.824 1.036 1.294 1.294 0 001.285-1.036.788.788 0 00-.823-1.046 1.317 1.317 0 00-1.28 1.047zm3.839 0A3.311 3.311 0 01125 53.4c-1.477 0-2.589-.883-2.24-2.46a3.315 3.315 0 013.333-2.469c1.485-.004 2.585.888 2.235 2.465zm3.119-2.316H129.8l-1.025 4.623h1.641l.413-1.865c.175-.794.535-1.4 1.445-1.4a1.157 1.157 0 01.66.154l.349-1.578h-.315a2.06 2.06 0 00-1.677.82h-.018zm5.529 1.64a.706.706 0 00-.767-.73 1.207 1.207 0 00-1.134.73zm1.313.947h-3.451c-.147.666.125 1.026.8 1.026a1.046 1.046 0 00.879-.424h1.576a2.909 2.909 0 01-2.7 1.587c-1.532 0-2.485-.866-2.132-2.46a3.082 3.082 0 013.108-2.469c1.6 0 2.313.99 1.962 2.568zm8.436-2.443a3.225 3.225 0 00-1.456-.3 2.32 2.32 0 00-2.4 1.64.9.9 0 00.758 1.216c.484.136.994.153.913.514-.055.252-.384.351-.591.351a2.129 2.129 0 01-1.194-.468l-.848 1.144a3 3 0 001.747.532 2.451 2.451 0 002.562-1.721c.19-.857-.306-1.217-1.038-1.37-.216-.045-.72-.091-.65-.406.052-.234.4-.315.584-.315a1.729 1.729 0 01.834.225zm1.249-.144l-.618 2.784c-.337 1.523.632 1.992 2.02 1.992s2.564-.469 2.9-1.992l.617-2.784h-1.64l-.548 2.469c-.13.586-.366 1-1.042 1s-.728-.414-.6-1l.548-2.469zm9.5.117a1.9 1.9 0 00-1.021-.27 3.251 3.251 0 00-3.144 2.514 1.9 1.9 0 001.979 2.415 2.938 2.938 0 001.211-.262l.307-1.387a1.538 1.538 0 01-.889.316.861.861 0 01-.9-1.136 1.464 1.464 0 011.377-1.127 1.161 1.161 0 01.776.324zm4.578 0a1.9 1.9 0 00-1.021-.27 3.252 3.252 0 00-3.145 2.514 1.9 1.9 0 001.98 2.415 2.938 2.938 0 001.211-.262l.307-1.387a1.54 1.54 0 01-.889.316.86.86 0 01-.9-1.136 1.461 1.461 0 011.376-1.127 1.16 1.16 0 01.775.324zm4.133 1.523a.706.706 0 00-.766-.73 1.208 1.208 0 00-1.136.73zm1.313.947h-3.452c-.148.666.124 1.026.8 1.026a1.046 1.046 0 00.879-.424h1.581a2.912 2.912 0 01-2.7 1.587c-1.531 0-2.484-.866-2.131-2.46a3.083 3.083 0 013.107-2.469c1.6 0 2.313.99 1.964 2.568zm5.12-2.443a3.232 3.232 0 00-1.457-.3 2.322 2.322 0 00-2.4 1.64.9.9 0 00.758 1.216c.484.136 1 .153.914.514-.056.252-.384.351-.592.351a2.123 2.123 0 01-1.192-.468l-.85 1.144a3 3 0 001.748.532 2.452 2.452 0 002.562-1.721c.19-.857-.306-1.217-1.039-1.37-.215-.045-.719-.091-.649-.406.053-.234.394-.315.584-.315a1.735 1.735 0 01.834.225zm4.848 0a3.229 3.229 0 00-1.457-.3 2.32 2.32 0 00-2.4 1.64.9.9 0 00.757 1.216c.485.136.994.153.914.514-.055.252-.383.351-.592.351a2.138 2.138 0 01-1.193-.468l-.848 1.144a3 3 0 001.747.532 2.453 2.453 0 002.563-1.721c.189-.857-.307-1.217-1.04-1.37-.215-.045-.719-.091-.649-.406.052-.234.4-.315.585-.315a1.724 1.724 0 01.832.225zm1.687 2.55a1.385 1.385 0 00-1.288 1.055.822.822 0 00.822 1.055 1.393 1.393 0 001.287-1.055.817.817 0 00-.815-1.054z" fill="#e60012"/></svg>